<?xml version="1.0" encoding="utf-8"?>
<!-- Generator: Adobe Illustrator 24.2.0, SVG Export Plug-In . SVG Version: 6.00 Build 0)  -->
<svg version="1.1" id="Layer_1" xmlns="http://www.w3.org/2000/svg" xmlns:xlink="http://www.w3.org/1999/xlink" x="0px" y="0px"
	 viewBox="0 0 1000 1000" style="enable-background:new 0 0 1000 1000;" xml:space="preserve">
<style type="text/css">
	.st0{fill:#C33E41;}
</style>
<g>
	<path class="st0" d="M215.3,724.8l11.2,1.2c5.3,0.6,5.3,4.7,5.3,7.7v13.6h-52v-13.6c0-3,0.6-7.1,5.9-7.7l11.2-1.2v-11.2h-67.4v11.2
		l11.2,1.2c4.7,0.6,5.3,4.7,5.3,7.7v43.8c0,3-0.6,7.1-5.3,7.7l-11.2,1.2v11.2h67.4v-11.2l-11.2-1.2c-5.3-0.6-5.9-4.7-5.9-7.7v-13h52
		v13c0,3,0,7.1-5.3,7.7l-11.2,1.2v11.2h67.4v-11.2l-11.2-1.2c-4.7-0.6-5.3-4.7-5.3-7.7v-43.8c0-3,0.6-7.1,5.3-7.7l11.2-1.2v-11.2
		h-67.4V724.8z M666.5,713.6h-83.4v11.2l10.1,1.2c3.5,0.6,5.9,1.8,5.9,7.1v44.3c0,3-0.6,7.1-5.9,7.7l-11.2,1.2v11.2h84.6
		c30.2,0,55-11.8,55-42C721.5,725.4,696.6,713.6,666.5,713.6L666.5,713.6z M660.6,781.6h-28.4v-52h28.4c16.6,0,21.9,7.7,21.9,26
		C682.4,773.9,677.1,781.6,660.6,781.6z"/>
	<path class="st0" d="M864,785.1c-5.3-0.6-7.1-4.1-8.9-6.5l-39-59.7c-3-4.1-4.7-5.3-8.9-5.3h-63.9v11.2l14.8,1.8c2.4,0,5.3,3,3,7.1
		l-29,46.7c-1.2,1.8-2.4,4.1-5.9,4.7l-11.2,1.2v11.2h53.8v-11.2l-8.9-0.6c-4.1-0.6-6.5-3.6-4.1-6.5l4.1-7.1h52l3.6,5.9
		c3.5,4.7-0.6,7.1-4.7,7.1l-9.5,1.2v11.2h73.3v-11.2L864,785.1L864,785.1z M768.8,756.7l16-25.4l17.1,25.4H768.8L768.8,756.7z
		 M522.2,724.8L534,726c4.7,0.6,5.3,4.7,5.3,7.7v42L495,717.1c-2.4-3-4.1-3.6-8.9-3.6h-58v11.2l11.2,1.2c5.3,0.6,5.9,4.7,5.9,7.7
		v43.8c0,3-0.6,7.1-5.9,7.7l-11.2,1.2v11.2H482v-11.2l-11.2-1.2c-4.7-0.6-5.3-4.7-5.3-7.7v-42l44.4,58.6c2.4,3,4.1,3.5,8.9,3.5h40.8
		v-63.9c0-3,0.6-7.1,5.9-7.7l11.2-1.2v-11.2h-54.4L522.2,724.8L522.2,724.8L522.2,724.8z M355.4,710.6c-55,0-69.2,24.2-69.2,44.9
		c0,21.3,14.2,44.9,69.2,44.9s69.2-23.7,69.2-44.9C424.6,734.8,410.4,710.6,355.4,710.6L355.4,710.6z M355.4,784.5
		c-21.3,0-30.2-8.9-30.2-29s8.9-29,30.2-29s30.2,8.9,30.2,29S376.7,784.5,355.4,784.5z M325.8,697.6L285,659.7l205.8-23.6l99.4,61.5
		H325.8z M672.4,536.1l-432.9,81l37.3,34.9l199.9-24.8c-3.6-1.8-4.1-3.6-4.1-5.9c0-2.4,1.8-4.7,5.3-5.3c1.8,0,110.6-16,118.3-17.2
		c3.5-0.6,12.4-2.4,21.9-7.1c9.5-4.1,15.4-8.9,18.9-12.4c3-2.4,11.2-11.2,17.2-17.7c3.4-3.4,6.5-6.9,9.5-10.6c2.4-3,7.7-9.5,10-12.4
		C674.2,537.3,673.6,536.1,672.4,536.1L672.4,536.1z M740.4,441.5l-541.1,139l32.5,30.2l166.8-31.9c-3-1.8-4.7-3-4.7-5.9
		c0-2.7,2.1-5,4.7-5.3l270.8-52.6c3.6-0.6,13-2.4,21.9-8.3c8.9-5.3,13.6-11.2,16.6-14.2c3.5-4.1,10-12.4,14.8-18.3
		c3.5-4.7,6.5-9.5,8.9-13c2.4-3.5,7.7-13,10.6-17.1C742.8,442.7,741.6,440.9,740.4,441.5L740.4,441.5z"/>
	<path class="st0" d="M668.8,284.2c7.1-3,43.2-18.3,50.8-22.5c8.3-3.5,31.9-14.2,40.8-18.3c10-4.1,38.4-17.7,42.6-19.5
		c20.1-9.5,44.9-21.3,49.7-24.2c1.2-0.6,3.6,0.6,3,2.4c-4.2,13.6-9.2,27.1-14.8,40.2c-3.5,8.3-8.9,20.1-13.6,27.8
		c-5.9,9.5-11.8,16-16.6,20.1c-10,9.5-18.3,14.2-27.2,17.7c-5.3,1.8-16.6,6.5-24.2,9.5c-1.8,0.6-31.9,11.8-38.4,13.6L187.5,519.6
		c-12.4,4.1-26.6,12.4-26.6,28.4c0,7.1,4.1,16.6,12.4,24.2l134.8,125.4h-62.7c-1.2-3.5-3-8.9-5.3-12.4s-3.5-7.1-10.6-13.6
		c-5.3-5.9-10.6-11.2-12.4-13l-71-71c-13.6-13-20.7-30.2-20.7-45.5c0-21.3,11.8-42,47.3-56.2L668.8,284.2L668.8,284.2z"/>
	<path class="st0" d="M727.4,355.8c7.1-2.4,20.7-7.1,24.2-8.3c3.6-1.2,17.7-6.5,20.1-7.1c9.5-4.1,18.9-7.7,29-11.8
		c1.2-0.6,3,0.6,2.4,2.4c-1.2,3-7.7,16-9.5,18.9c-4.1,8.3-8.3,16-12.4,22.5c-4.1,6.5-9.5,15.4-13,19.5c-5.9,7.1-11.2,11.8-19.5,17.7
		c-10.6,7.1-20.1,9.5-24.2,11.2L331.2,526.1c-3,0.6-4.1,4.1-4.1,5.3c0,2.4,1.8,4.7,4.1,5.9l-139.6,36.1l-11.2-10.6
		c-4.1-3.5-5.9-8.9-5.9-13c0-10.1,7.7-14.8,20.1-18.9L727.4,355.8z"/>
</g>
</svg>
